<svg xmlns="http://www.w3.org/2000/svg" width="1050" height="600" viewBox="0 0 1050 600">
  <rect width="1050" height="600" rx="28" fill="#111111"/>
  <rect x="0" y="420" width="1050" height="180" fill="#FFD400"/>
  <g transform="translate(48,54)">
    <rect x="0" y="0" rx="20" ry="20" width="180" height="180" fill="#FFD400"/>
    <path d="M38 112 L90 40 L144 112" fill="none" stroke="#111111" stroke-width="10" stroke-linecap="round" stroke-linejoin="round"/>
    <rect x="50" y="108" width="76" height="48" rx="8" fill="none" stroke="#ffffff" stroke-width="8"/>
    <path d="M64 147 L85 126 L93 134 L80 147 L93 160 L85 168 L64 147 Z" fill="#ffffff"/>
    <path d="M100 124 L85 147 L101 147 L90 172 L123 136 L106 136 L116 117 Z" fill="#111111"/>
  </g>
  <text x="260" y="154" font-size="112" font-family="Arial Black, Arial, sans-serif" fill="#ffffff">FUSE &amp; FIX</text>
  <text x="264" y="214" font-size="42" font-family="Arial, Helvetica, sans-serif" letter-spacing="4" fill="#FFD400">HOME SERVICES</text>
  <text x="64" y="340" font-size="54" font-family="Arial, Helvetica, sans-serif" fill="#ffffff">Eric Woodard</text>
  <text x="64" y="392" font-size="46" font-family="Arial, Helvetica, sans-serif" fill="#ffffff">Call or Text: 870-560-8903</text>
  <!-- Wrap the tagline across two shorter lines and use a smaller font to ensure it fits within the card -->
  <text x="64" y="490" font-size="28" font-family="Arial Black, Arial, sans-serif" fill="#111111">Electrical Repair • Lighting</text>
  <text x="64" y="540" font-size="28" font-family="Arial Black, Arial, sans-serif" fill="#111111">Outlets, Switches &amp; Small Fixes</text>
</svg>